{"glyphs":{":":{"x_min":0,"x_max":249,"ha":249,"o":"m 221 354 q 181 354 161 358 q 122 367 122 399 q 122 412 124 418 q 127 424 128 427 q 133 437 145 455 q 192 455 209 423 q 215 410 218 396 q 221 382 221 354 z m 255 77 q 255 72 253 66 q 251 59 244 49 q 238 32 228 20 q 216 23 206 26 q 196 29 187 34 q 162 49 162 65 q 162 79 174 95 l 195 129 q 202 125 223 113 q 234 107 239 102 q 255 91 255 77 z"},"$":{"x_min":0,"x_max":576,"ha":576,"o":"m 575 412 q 575 358 514 305 l 355 177 l 363 128 q 363 90 340 68 q 316 46 262 39 l 250 162 l 218 156 l 184 153 q 173 153 167 155 l 150 161 q 140 169 134 178 q 129 187 125 202 q 145 207 169 212 q 193 218 213 222 q 261 236 261 298 l 261 323 q 261 336 261 349 q 259 360 259 364 q 259 374 258 386 q 256 398 252 412 l 188 402 l 148 400 q 134 400 103 407 l 85 435 q 99 486 151 525 q 181 547 201 564 q 221 581 230 591 q 267 640 267 732 q 267 760 283 776 q 299 791 336 798 l 352 735 l 365 704 l 400 719 q 412 725 428 728 q 445 732 469 732 q 459 708 440 690 q 422 671 390 652 q 370 642 360 613 q 350 584 350 539 l 350 517 q 350 495 355 485 l 388 482 l 424 484 l 456 486 q 480 486 498 483 q 516 480 532 471 q 575 449 575 412 z m 492 407 q 492 421 473 429 q 452 436 419 436 q 371 436 352 412 q 332 387 332 342 l 335 297 l 344 256 q 369 270 385 282 q 405 297 431 320 q 489 374 492 407 z m 267 518 l 264 543 l 227 509 q 209 490 197 470 l 217 468 q 242 468 254 480 q 267 493 267 518 z"},"?":{"x_min":0,"x_max":448,"ha":448,"o":"m 458 721 q 458 673 436 617 q 427 596 411 557 q 407 548 369 453 q 365 426 364 412 q 360 385 352 342 q 343 309 320 293 q 297 277 252 277 q 252 364 316 508 q 379 653 379 706 q 379 727 370 738 q 361 750 332 750 q 292 750 194 709 q 95 668 64 668 q 64 741 175 782 q 265 815 342 815 q 458 815 458 721 z m 369 13 q 369 2 366 -8 q 362 -18 355 -28 q 346 -37 339 -43 q 325 -55 309 -66 l 289 -30 l 285 -5 q 285 5 288 12 q 290 18 300 28 l 357 84 q 362 59 367 35 z"},"<":{"x_min":0,"x_max":496,"ha":496,"o":"m 513 79 q 499 60 490 52 q 482 44 470 38 q 457 31 446 28 q 434 25 420 25 q 368 25 224 103 q 70 187 70 233 q 70 253 92 274 q 100 281 110 287 q 119 293 134 300 q 173 319 296 467 q 323 500 352 520 q 381 541 418 553 l 421 520 q 421 490 392 452 q 364 414 304 370 q 195 289 195 239 q 195 182 365 123 q 378 117 513 79 z"},"'":{"x_min":0,"x_max":384,"ha":384,"o":"m 364 577 l 362 543 q 335 550 316 562 q 298 573 285 590 q 262 622 262 655 q 262 677 271 691 q 275 699 284 705 q 292 711 313 720 l 338 664 q 364 612 364 577 z"},"=":{"x_min":0,"x_max":608,"ha":608,"o":"m 625 465 q 609 436 586 420 q 564 404 526 394 q 463 378 319 378 l 263 378 l 247 378 l 233 378 l 222 378 q 200 378 179 378 q 163 381 157 382 q 83 389 59 433 q 76 439 97 444 q 118 449 135 452 q 152 455 169 457 q 186 459 205 459 q 219 459 234 458 q 249 457 310 451 q 371 445 409 445 q 425 445 451 448 q 477 451 528 458 q 578 465 625 465 z m 577 240 q 546 235 518 232 q 489 229 460 229 l 349 227 l 251 227 l 211 223 l 170 218 q 159 218 148 222 q 138 225 132 230 q 127 235 122 248 q 117 261 113 272 q 140 282 173 288 q 206 293 236 296 q 266 300 306 303 q 347 306 370 306 q 434 306 477 298 q 550 286 577 240 z"},"a":{"x_min":0,"x_max":372,"ha":372,"o":"m 370 48 q 370 30 362 22 q 356 9 332 9 q 315 9 272 29 q 237 48 192 48 q 169 48 148 44 q 128 40 110 31 q 91 22 70 14 q 49 5 30 0 q 20 20 20 40 q 20 62 66 218 q 113 374 122 385 q 130 396 154 396 q 172 396 182 392 q 192 387 196 385 q 199 383 209 375 q 230 359 300 214 q 370 69 370 48 z m 249 121 q 243 160 218 200 q 197 230 162 265 l 130 188 q 123 164 123 133 q 123 105 161 105 l 172 105 q 177 105 189 107 z"},"L":{"x_min":0,"x_max":474,"ha":474,"o":"m 487 94 q 475 52 446 39 q 428 31 392 31 l 364 31 q 334 31 296 23 q 242 14 214 10 q 187 5 178 5 q 102 5 102 73 l 105 152 l 114 283 l 116 394 q 116 417 114 428 q 113 438 108 462 q 99 511 95 536 q 91 561 88 586 q 88 626 129 647 q 161 625 180 511 q 188 452 192 390 q 196 328 196 248 l 196 229 q 196 222 196 215 q 194 206 194 202 l 185 126 q 185 108 194 96 q 202 85 225 85 q 254 85 339 98 q 381 104 410 104 q 428 104 446 102 q 463 100 487 94 z"},"3":{"x_min":0,"x_max":473,"ha":473,"o":"m 484 270 q 484 184 403 103 q 362 64 320 40 q 277 16 219 0 l 208 40 l 206 53 l 217 81 q 259 103 292 123 q 318 139 344 156 q 406 197 406 265 q 406 298 379 313 q 365 319 344 324 q 322 328 301 328 q 287 328 275 328 q 263 328 254 325 q 246 325 189 316 l 187 343 q 187 367 206 396 q 224 424 264 459 q 321 510 343 543 l 161 513 q 129 513 112 518 q 96 524 84 534 q 72 544 56 564 q 198 582 235 589 q 257 595 278 601 q 300 607 326 619 l 357 632 q 378 641 394 641 q 423 641 438 622 q 446 614 450 604 q 453 594 457 577 q 457 536 403 481 l 328 413 l 398 382 q 484 340 484 270 z"},";":{"x_min":0,"x_max":310,"ha":310,"o":"m 324 407 l 281 396 l 251 390 l 228 391 q 212 393 199 400 q 201 417 204 426 q 207 436 214 451 q 227 469 256 474 q 280 474 299 455 q 305 447 310 436 q 316 425 324 407 z m 249 63 q 249 7 214 -119 q 166 -270 117 -270 q 106 -270 100 -268 q 94 -268 86 -266 q 77 -263 59 -255 l 112 -162 q 137 -122 148 -86 q 153 -73 158 -53 q 163 -33 163 -19 l 163 26 q 163 77 173 114 q 178 134 192 149 q 205 164 230 175 q 249 112 249 63 z"},"J":{"x_min":0,"x_max":350,"ha":350,"o":"m 329 231 q 329 146 255 82 q 226 56 184 34 q 143 11 84 -9 l 74 16 q 69 29 69 37 q 69 50 157 113 q 238 170 238 296 q 238 333 236 362 q 234 390 225 452 q 212 564 212 607 q 212 632 225 652 q 235 668 279 679 q 307 578 317 461 q 324 385 326 338 q 329 292 329 231 z"},"V":{"x_min":0,"x_max":463,"ha":463,"o":"m 534 667 q 534 650 527 624 q 520 598 502 555 l 440 409 q 421 366 411 339 q 401 312 394 288 q 387 263 379 233 q 375 220 352 144 q 328 68 298 34 q 285 19 268 9 q 252 -1 226 -9 l 225 15 l 225 28 l 226 73 q 227 79 228 89 q 228 99 229 103 q 229 119 211 158 q 199 184 194 198 q 188 213 183 227 q 171 281 148 348 q 135 391 128 412 q 121 432 105 472 l 52 609 q 70 609 82 613 l 108 615 q 138 615 177 519 l 240 338 q 266 257 282 230 l 333 340 q 374 466 388 504 q 401 541 417 578 q 433 615 454 646 q 475 676 512 711 q 523 694 528 684 q 533 675 534 667 z"},"\"":{"x_min":0,"x_max":599,"ha":599,"o":"m 614 576 q 614 554 602 541 q 591 528 561 520 l 532 582 q 527 599 525 608 q 523 616 520 632 q 520 651 528 666 q 536 680 572 691 l 599 633 q 604 622 608 606 q 613 589 614 576 z m 473 512 q 423 512 399 539 q 379 564 379 596 q 379 623 391 644 q 397 654 410 661 q 424 668 448 674 q 452 660 458 632 q 464 605 468 582 q 473 560 473 512 z"},"7":{"x_min":0,"x_max":535,"ha":535,"o":"m 553 286 l 429 275 q 396 275 368 90 q 355 -17 324 -54 q 269 -30 269 23 q 269 60 298 139 q 326 218 326 250 q 326 274 282 291 q 262 298 252 304 q 242 311 224 329 q 285 336 317 347 q 349 358 368 378 q 400 413 400 495 l 399 513 l 289 512 q 195 512 149 525 q 103 538 54 580 q 67 583 76 586 q 85 589 95 594 l 125 607 q 154 587 200 580 q 246 572 282 572 q 308 572 333 575 q 358 578 374 580 l 470 589 l 522 584 q 518 553 510 524 q 501 496 485 461 l 448 363 q 457 360 473 354 q 489 349 500 342 q 511 335 517 330 q 533 316 553 286 z"},"S":{"x_min":0,"x_max":362,"ha":362,"o":"m 372 362 q 372 355 368 342 q 365 330 356 307 q 350 287 350 277 q 350 269 351 260 q 352 250 356 237 l 362 200 q 362 177 352 148 q 343 119 323 81 q 275 -13 267 -39 q 228 -35 213 -24 q 187 -12 187 13 q 187 26 198 52 q 210 79 233 116 q 279 188 279 252 q 279 285 274 301 q 271 322 259 336 l 237 345 q 215 345 176 326 q 130 306 104 306 q 78 306 65 325 q 62 332 59 342 q 56 351 56 362 q 56 392 65 440 q 74 487 94 556 q 135 690 181 730 q 215 703 215 676 q 215 667 178 544 q 160 488 160 453 q 160 432 164 413 l 221 429 q 261 440 293 440 q 323 440 348 414 q 372 385 372 362 z"},"}":{"x_min":0,"x_max":317,"ha":317,"o":"m 323 289 q 323 275 319 258 q 315 241 305 218 q 268 125 268 100 q 268 84 271 64 q 274 45 276 32 l 281 -11 q 281 -36 266 -56 q 252 -76 219 -92 q 210 -96 180 -105 q 151 -114 108 -127 l 84 -70 q 96 -51 154 -14 q 180 2 180 67 q 180 102 190 148 q 216 252 216 278 q 216 304 196 428 q 175 551 164 566 q 152 581 116 592 q 81 603 64 645 l 79 676 q 93 683 96 684 q 103 688 116 688 q 217 688 251 561 q 258 518 268 464 q 277 410 282 388 l 311 325 q 323 305 323 289 z"},"Z":{"x_min":0,"x_max":542,"ha":542,"o":"m 556 135 q 530 58 393 37 l 282 20 q 271 18 261 12 l 214 -9 l 193 3 q 189 11 186 20 q 183 30 181 39 l 178 76 q 178 138 202 231 l 224 310 q 172 316 167 319 q 130 330 113 372 q 139 381 166 384 l 201 388 q 265 394 291 520 l 305 616 l 53 646 q 61 662 68 670 q 75 679 84 687 l 114 698 l 163 698 l 211 699 q 250 699 283 698 q 316 697 342 694 q 367 692 392 685 q 417 678 449 664 q 415 636 392 605 q 370 574 357 540 q 355 532 344 479 q 339 455 329 409 l 386 389 q 360 336 320 306 q 272 267 272 149 q 272 120 279 88 l 395 116 q 426 122 458 129 q 505 139 516 139 z"},"x":{"x_min":0,"x_max":282,"ha":282,"o":"m 292 277 q 292 267 280 247 q 269 227 244 197 q 201 143 201 128 q 201 120 204 114 q 206 107 214 97 q 248 59 250 52 q 250 45 248 38 q 246 30 237 21 q 230 17 222 13 q 213 9 204 9 q 177 9 143 37 l 125 52 q 115 41 108 35 q 107 34 91 21 q 79 11 66 4 q 52 -3 27 -11 l 21 22 q 21 37 26 48 q 30 59 42 73 q 86 126 86 144 q 86 168 59 209 q 32 260 32 283 l 36 319 q 59 305 80 284 q 100 264 128 228 q 145 207 164 191 q 175 216 201 254 q 241 315 269 315 q 282 315 289 298 z"},")":{"x_min":0,"x_max":271,"ha":271,"o":"m 281 472 q 281 343 269 258 q 263 204 252 160 q 242 115 220 59 q 147 73 147 132 q 147 150 184 291 q 202 356 202 412 q 202 499 180 562 q 166 601 144 634 q 123 667 86 704 l 117 726 q 130 733 148 733 q 197 733 243 621 q 281 525 281 472 z"},"&":{"x_min":0,"x_max":463,"ha":463,"o":"m 476 296 q 476 289 460 265 q 443 241 408 201 q 377 166 377 134 q 377 121 381 102 l 385 73 q 385 48 376 39 q 367 26 349 26 q 329 26 309 44 q 303 51 301 54 q 293 63 289 73 q 248 55 202 55 q 151 55 122 76 q 107 88 100 104 q 92 120 92 143 q 92 172 108 208 q 123 245 154 292 q 186 340 202 370 q 217 401 217 419 q 217 464 205 521 l 182 633 q 181 637 181 645 q 181 660 188 674 q 195 687 206 691 q 218 695 227 695 q 255 695 288 686 q 320 677 362 656 q 456 613 456 567 q 456 548 438 516 q 420 483 384 441 q 324 371 317 337 l 374 338 q 390 338 406 336 q 422 335 440 331 q 472 326 476 296 z m 360 553 q 360 563 342 573 q 324 579 318 581 q 312 583 300 583 q 289 583 284 578 q 280 573 279 568 q 278 562 278 554 q 278 515 298 476 q 309 485 319 494 q 329 502 334 509 q 357 533 360 553 z m 274 190 q 274 207 271 219 l 254 275 q 244 269 234 260 q 223 251 212 237 q 201 223 194 209 q 187 195 186 185 q 186 171 201 162 q 208 158 219 156 q 230 153 245 151 q 260 151 267 161 q 274 171 274 190 z"},"_":{"x_min":0,"x_max":667,"ha":667,"o":"m 681 92 q 681 76 660 64 q 645 59 619 59 l 587 60 l 552 63 q 417 63 310 58 q 204 53 79 39 l 32 32 q 10 32 -2 44 q -11 55 -11 73 q -11 94 7 100 q 18 106 47 106 l 79 106 q 98 106 115 107 q 132 108 153 112 q 258 130 281 130 l 493 129 q 512 129 563 138 l 607 142 q 643 142 662 130 q 681 119 681 92 z"},"v":{"x_min":0,"x_max":362,"ha":362,"o":"m 364 339 q 364 325 362 312 q 360 298 353 283 q 345 259 327 226 q 310 189 306 181 q 289 145 274 117 q 234 33 216 18 q 197 3 173 3 q 148 3 134 18 q 130 24 126 32 q 122 39 116 53 l 10 340 l 42 344 q 67 344 86 332 q 104 320 116 294 q 121 284 134 247 q 148 210 155 189 l 172 138 q 194 164 239 251 q 288 346 358 376 z"},"O":{"x_min":0,"x_max":443,"ha":443,"o":"m 453 456 q 453 286 439 234 q 413 115 319 50 q 291 28 270 18 q 250 8 218 8 q 139 8 104 126 q 94 162 88 204 q 83 245 83 296 q 83 369 91 434 q 99 500 118 574 q 166 757 259 821 q 314 748 344 708 q 374 667 386 649 q 453 538 453 456 z m 360 396 q 360 500 341 558 q 317 636 247 659 q 206 535 185 444 q 169 370 169 305 q 169 267 173 244 q 177 220 189 196 q 215 145 274 145 q 330 145 353 242 q 356 264 358 302 q 360 341 360 396 z"},"(":{"x_min":0,"x_max":180,"ha":180,"o":"m 185 158 q 185 148 182 140 q 180 132 170 124 q 156 110 136 110 q 70 110 23 237 q -12 336 -12 403 q -12 500 10 581 q 28 643 57 679 q 86 715 134 730 q 134 673 92 512 q 84 479 78 444 q 72 410 72 391 q 72 307 106 255 z"},"C":{"x_min":0,"x_max":521,"ha":521,"o":"m 514 206 q 514 150 404 75 q 295 0 226 0 q 149 0 108 124 q 88 180 78 260 q 68 341 68 436 q 68 517 143 623 q 226 740 317 740 q 356 740 392 720 q 429 701 429 663 q 429 644 414 628 q 398 613 370 605 l 338 648 q 326 659 320 663 q 313 667 303 667 q 273 667 244 637 q 214 607 182 545 q 123 436 123 375 q 123 305 160 210 q 205 94 263 94 q 317 94 413 176 l 500 254 q 507 240 510 228 q 514 216 514 206 z"},"W":{"x_min":0,"x_max":690,"ha":690,"o":"m 736 608 q 736 544 663 353 q 627 259 607 211 q 580 147 556 101 q 546 79 534 60 q 523 42 511 27 q 476 -16 420 -30 q 420 -13 423 3 q 426 19 435 53 q 442 74 442 91 q 442 141 406 230 l 332 411 q 294 504 294 554 l 296 590 q 358 583 392 493 l 443 325 q 473 237 506 205 q 521 233 544 282 q 555 306 567 334 l 650 567 q 655 583 660 593 q 666 603 676 615 q 692 635 734 651 z m 336 77 q 336 51 316 36 q 307 29 296 23 q 286 17 266 10 q 249 44 234 78 q 219 111 194 170 q 144 287 104 390 q 57 510 57 533 q 57 554 64 566 q 71 577 80 582 q 88 587 108 591 l 175 438 l 236 291 q 272 206 308 148 q 315 136 319 130 q 323 123 327 114 q 336 94 336 77 z"},"A":{"x_min":0,"x_max":612,"ha":612,"o":"m 617 77 q 617 51 612 28 q 607 6 593 -20 q 576 -14 556 2 q 536 18 509 45 q 474 81 352 81 q 185 81 172 58 q 158 30 98 -4 l 76 44 l 72 80 q 72 152 117 275 q 139 338 168 424 q 179 456 181 464 l 208 595 l 230 727 q 236 763 243 782 q 252 812 283 838 q 289 832 302 818 q 315 803 319 797 q 331 788 338 784 q 345 779 355 775 l 362 768 l 390 757 q 412 726 469 568 q 493 501 520 419 q 544 347 569 265 q 617 106 617 77 z m 487 213 q 487 254 461 320 q 425 412 421 431 q 384 595 368 632 q 344 693 313 714 l 276 576 l 221 357 q 192 234 190 216 q 190 181 221 165 q 245 155 304 155 l 406 153 q 432 153 445 156 q 458 158 469 165 q 487 177 487 213 z"},"f":{"x_min":0,"x_max":362,"ha":362,"o":"m 374 239 q 366 170 259 143 l 113 124 l 119 101 q 126 79 126 63 q 126 48 122 38 q 117 29 104 20 q 92 10 49 0 q 44 21 37 60 q 30 99 27 114 q 20 164 20 212 q 20 284 28 300 q 37 317 82 317 l 125 316 q 150 316 182 323 q 264 342 281 342 q 305 342 323 334 q 341 325 357 302 q 306 294 255 286 q 184 274 159 263 q 100 242 100 219 q 100 204 116 198 q 131 192 154 192 q 184 192 228 201 q 235 201 374 239 z"},"Q":{"x_min":0,"x_max":463,"ha":463,"o":"m 468 431 q 468 397 460 360 q 453 323 437 281 l 381 126 q 380 119 387 106 q 394 92 410 66 q 448 13 448 -10 q 448 -20 443 -33 q 442 -43 434 -59 q 393 -36 370 -10 q 362 -2 354 9 q 347 20 336 38 q 282 14 216 14 q 118 14 79 99 q 55 153 55 253 q 55 351 109 527 q 171 729 248 779 q 336 725 402 620 q 468 516 468 431 z m 397 430 q 397 462 386 494 q 375 525 352 561 q 310 627 250 660 q 221 614 199 558 q 177 503 161 439 q 135 323 135 196 q 135 151 152 119 q 175 80 220 80 q 247 80 262 85 q 282 93 283 109 q 283 125 262 152 l 229 194 l 282 202 q 295 204 304 205 q 312 206 315 207 q 337 217 367 302 q 382 347 390 378 q 397 410 397 430 z"},"w":{"x_min":0,"x_max":576,"ha":576,"o":"m 575 306 q 575 288 568 271 q 562 254 546 235 q 525 208 494 166 q 476 141 472 136 l 452 59 q 444 36 428 20 q 412 4 380 -9 l 257 176 q 211 247 211 279 q 211 297 224 310 q 236 324 266 336 q 275 313 291 274 q 304 242 315 218 q 344 161 381 134 l 454 237 q 482 279 504 304 q 527 328 554 344 q 575 326 575 306 z m 281 48 q 281 29 263 17 q 254 12 246 9 q 238 6 226 6 q 212 6 200 14 q 188 21 177 36 q 156 62 89 163 q 16 278 16 290 q 16 314 55 314 q 63 314 74 311 q 84 308 99 293 q 107 285 112 278 q 117 270 124 256 q 131 242 136 233 q 141 224 143 217 q 153 196 166 182 q 207 146 231 120 q 281 74 281 48 z"},"-":{"x_min":0,"x_max":409,"ha":409,"o":"m 427 361 q 413 356 392 350 q 370 343 366 342 l 325 339 l 295 340 l 260 345 l 158 352 q 120 356 98 365 q 75 374 61 394 l 130 411 q 159 417 187 417 q 233 417 311 402 q 389 387 427 361 z"},"E":{"x_min":0,"x_max":442,"ha":442,"o":"m 455 98 q 414 91 272 28 q 209 0 186 0 q 137 0 116 48 q 103 77 103 134 l 103 161 l 104 189 l 104 219 l 104 243 l 104 263 l 104 279 l 104 292 q 104 314 104 337 q 101 352 100 358 q 100 377 98 391 q 96 405 85 457 q 79 490 73 524 q 72 529 64 563 q 64 600 87 610 q 110 621 147 621 l 164 621 l 177 621 l 190 623 l 308 642 q 316 643 319 643 q 343 643 358 629 q 366 622 374 609 q 381 596 386 575 l 263 568 q 159 559 159 484 q 159 450 164 437 q 174 414 199 414 q 232 414 302 441 q 371 468 419 468 q 410 396 282 366 q 171 342 171 256 q 171 223 172 210 q 174 197 180 168 l 198 89 l 285 123 q 354 149 391 149 q 417 149 431 138 q 445 128 455 98 z"},"s":{"x_min":0,"x_max":305,"ha":305,"o":"m 315 189 q 315 138 260 69 q 200 -9 144 -9 q 123 -9 107 12 q 104 18 101 28 q 98 37 98 51 q 98 70 101 76 l 107 96 q 126 91 134 90 q 142 88 152 88 q 186 88 208 113 q 230 138 230 169 q 230 186 204 186 q 182 186 154 179 q 84 159 61 159 q 37 159 23 168 q 4 181 4 201 q 4 223 93 330 q 187 442 232 442 q 242 442 250 440 q 259 437 275 427 q 241 394 216 367 q 198 348 183 330 q 163 306 150 286 q 136 265 127 245 l 167 249 l 221 253 q 263 253 287 240 q 315 228 315 189 z"},">":{"x_min":0,"x_max":535,"ha":535,"o":"m 550 371 q 518 319 432 240 q 410 220 362 179 q 315 138 259 91 l 110 -33 l 84 -2 q 79 4 76 10 q 74 16 68 30 q 70 36 114 74 q 157 111 237 176 l 417 321 l 255 382 q 118 442 118 486 q 118 499 120 505 q 122 511 124 518 q 127 525 133 532 q 147 532 156 530 q 166 527 179 520 l 211 500 q 271 460 375 426 q 420 411 464 397 q 509 383 550 371 z"},"l":{"x_min":0,"x_max":305,"ha":305,"o":"m 317 21 q 300 17 263 7 q 239 1 220 -2 q 202 -5 183 -7 q 164 -9 142 -9 q 102 -9 75 0 q 34 14 34 52 q 34 65 40 94 q 45 109 46 116 q 48 122 48 128 q 48 152 38 195 q 30 243 30 260 q 30 295 40 314 q 49 334 97 355 q 112 283 117 233 l 122 119 q 122 88 140 74 q 160 61 206 61 l 253 61 q 280 61 292 65 q 300 63 306 54 q 312 44 317 21 z"},"8":{"x_min":0,"x_max":509,"ha":509,"o":"m 509 290 q 509 216 459 131 q 401 26 321 26 q 267 26 230 36 q 192 46 170 64 q 147 82 136 112 q 126 141 126 189 q 126 210 144 244 q 163 278 163 296 q 162 296 162 297 q 156 303 149 306 l 118 318 q 89 334 72 369 q 66 384 64 392 q 58 413 58 435 q 58 496 90 551 q 110 586 138 606 q 165 625 208 631 l 211 582 q 200 567 187 547 q 180 535 165 509 q 146 474 146 433 q 146 414 154 396 q 161 384 181 384 q 237 384 282 444 q 326 505 326 560 l 318 579 l 301 586 l 271 580 q 253 575 243 569 l 230 584 q 256 618 278 630 q 300 642 324 642 q 367 642 391 603 q 408 579 408 536 q 408 513 396 488 q 383 462 353 428 l 318 387 l 334 390 l 401 395 q 456 395 482 368 q 509 340 509 290 z m 428 305 q 428 340 384 340 q 320 340 259 287 q 204 233 204 173 q 204 160 207 146 q 210 133 225 115 q 244 93 282 93 q 329 93 352 132 q 363 151 381 183 q 396 210 400 218 q 428 279 428 305 z"},"\\":{"x_min":0,"x_max":430,"ha":430,"o":"m 436 52 q 436 37 420 16 q 403 -4 384 -4 q 369 -4 349 20 q 329 45 307 93 l 261 208 l 200 361 l 112 581 q 69 692 67 707 l 69 733 l 86 751 q 105 748 114 741 l 132 725 l 197 579 l 320 299 q 391 141 418 99 l 430 77 q 436 69 436 52 z"},"e":{"x_min":0,"x_max":384,"ha":384,"o":"m 401 25 q 384 18 364 14 q 345 9 323 5 q 278 0 222 0 l 157 0 l 120 1 q 110 2 105 3 q 100 4 90 9 q 54 26 31 104 q 22 139 16 172 q 10 205 10 226 q 10 246 11 254 q 12 261 20 282 q 28 304 54 326 q 68 320 82 314 q 94 307 106 301 q 128 288 148 288 q 163 288 176 290 q 188 291 208 295 q 249 304 269 304 q 316 304 341 255 q 328 248 306 244 q 284 240 249 236 q 169 227 151 201 l 165 200 l 204 199 l 240 199 l 277 200 l 308 199 q 317 199 327 198 q 337 197 354 193 q 331 128 260 128 l 216 130 l 185 133 q 146 133 146 102 q 146 66 249 66 q 308 66 344 56 q 380 46 401 25 z"},"b":{"x_min":0,"x_max":451,"ha":451,"o":"m 464 151 q 464 111 364 50 q 263 -11 217 -11 q 195 -11 167 6 q 190 43 288 85 q 356 114 371 149 q 196 149 159 100 q 129 61 108 40 q 88 20 72 15 q 53 54 45 86 l 40 156 q 40 163 40 170 q 40 178 43 192 l 46 216 q 46 234 41 248 l 10 313 q 39 323 66 330 q 92 336 122 341 q 179 350 233 350 q 289 350 325 342 q 363 338 411 308 q 381 278 366 264 q 351 251 335 238 l 284 203 l 366 197 q 461 186 464 151 z m 299 283 l 281 287 l 252 291 q 200 291 156 281 q 113 271 113 245 q 113 236 116 230 q 119 223 121 220 q 123 216 131 206 q 166 214 188 222 q 209 229 228 238 q 273 260 299 283 z"},"%":{"x_min":0,"x_max":656,"ha":656,"o":"m 657 235 q 657 152 637 112 q 616 66 571 66 q 521 66 495 100 q 469 135 469 179 q 469 229 486 283 q 498 325 515 346 q 532 366 553 366 q 601 366 632 317 q 644 296 650 276 q 657 257 657 235 z m 484 688 q 484 634 453 547 l 394 378 q 363 279 363 211 q 363 183 350 167 q 343 160 332 156 q 320 151 303 151 l 261 156 q 261 227 292 307 l 352 465 q 382 542 382 602 q 382 630 377 649 l 285 605 q 250 584 218 531 q 153 430 94 430 l 58 434 q 58 521 123 586 q 171 631 268 678 l 431 750 q 461 737 472 722 q 484 707 484 688 z m 577 231 q 577 240 572 252 l 566 270 l 557 255 q 548 240 548 229 q 548 217 554 207 l 564 193 l 571 207 q 577 225 577 231 z m 163 550 q 154 548 140 538 q 126 526 126 508 q 126 495 145 485 l 156 513 q 160 525 162 533 q 163 541 163 550 z"},"m":{"x_min":0,"x_max":656,"ha":656,"o":"m 658 45 q 658 23 648 7 q 639 -9 610 -9 q 582 -9 568 13 q 559 31 559 60 l 562 106 l 566 138 l 566 187 l 566 213 q 566 224 566 235 q 564 243 564 246 l 561 273 q 532 232 504 194 q 475 156 458 135 q 373 25 289 25 q 235 25 173 111 l 120 208 l 124 170 l 132 103 q 132 67 112 44 q 93 20 48 5 q 43 25 39 48 q 35 71 33 82 l 31 165 l 31 208 l 32 254 q 32 292 65 311 q 99 327 145 327 q 159 327 176 299 q 193 271 208 219 q 231 124 280 124 q 300 124 328 142 q 355 160 392 195 l 485 303 q 496 317 513 322 l 554 333 l 559 315 l 518 302 q 513 301 510 300 q 507 299 504 298 q 511 303 517 306 q 516 306 518 306 q 521 307 538 312 q 554 316 587 345 q 632 313 650 225 q 652 205 655 162 q 658 118 658 83 l 658 61 z"},"#":{"x_min":0,"x_max":656,"ha":656,"o":"m 656 385 l 626 385 q 546 385 513 373 q 459 353 459 304 l 462 278 l 471 232 q 471 204 452 191 q 445 184 434 178 q 422 172 403 169 l 382 214 l 357 276 q 339 258 310 198 q 302 180 296 172 q 282 152 257 139 q 244 155 230 164 q 216 174 196 181 q 182 184 158 189 q 133 194 110 201 q 120 219 137 232 q 154 246 186 263 q 217 280 217 334 l 217 363 q 208 361 202 359 q 197 357 173 347 q 138 333 108 326 q 79 319 48 319 q 61 337 91 360 q 121 382 173 413 q 211 437 220 458 q 222 461 224 474 l 225 488 l 222 526 l 219 557 q 219 571 220 579 q 222 587 226 594 q 230 602 238 610 q 247 617 266 629 l 288 541 l 299 491 q 355 512 367 531 q 374 545 374 613 l 388 639 q 397 642 410 646 q 423 649 440 651 q 440 625 443 608 q 449 589 450 586 q 452 582 460 567 l 487 573 l 542 587 q 542 550 527 528 q 512 505 482 489 q 435 465 435 444 q 435 434 444 428 q 453 422 468 422 q 481 422 543 443 q 555 446 571 449 q 587 452 595 452 q 629 452 639 438 q 649 424 656 385 z m 362 396 q 362 404 362 412 q 359 422 358 426 l 355 440 q 339 432 332 428 q 324 424 317 418 q 296 403 296 381 l 299 357 l 310 334 q 336 348 347 359 q 362 373 362 396 z"},",":{"x_min":0,"x_max":198,"ha":198,"o":"m 200 21 q 200 -79 188 -140 q 177 -200 156 -237 q 134 -274 95 -294 q 71 -257 71 -223 q 71 -196 85 -154 q 115 -62 115 -45 q 115 -35 112 -24 q 109 -14 104 -2 l 80 52 q 80 62 84 70 q 87 78 96 84 l 142 109 l 147 94 l 166 92 q 186 79 193 60 q 196 48 198 38 q 200 29 200 21 z"},"n":{"x_min":0,"x_max":451,"ha":451,"o":"m 462 282 q 462 266 455 239 l 449 205 q 449 188 453 165 l 461 92 q 461 43 427 9 q 390 -23 332 -23 q 305 -23 278 -16 q 250 -9 218 8 q 176 29 141 61 q 129 29 115 21 q 108 15 88 12 q 69 8 35 8 l 33 130 q 33 166 34 189 q 35 212 39 232 q 42 255 50 274 q 58 294 78 326 q 109 290 151 198 q 183 126 221 91 q 259 56 310 56 q 362 56 380 175 q 389 241 406 276 q 422 310 440 310 q 449 310 456 303 z"},"h":{"x_min":0,"x_max":419,"ha":419,"o":"m 422 72 q 422 44 402 27 q 394 20 378 12 q 362 5 343 -1 l 321 70 q 308 95 271 95 q 228 95 210 94 q 192 92 179 86 q 144 74 134 20 q 100 20 80 37 q 60 54 48 89 q 42 104 40 126 q 37 147 37 183 l 40 263 l 46 345 l 112 343 l 128 261 l 136 176 q 146 142 204 142 q 218 142 233 143 q 248 144 264 147 l 317 157 l 313 189 l 316 314 q 316 333 331 346 q 335 347 346 350 q 357 352 381 355 q 386 336 388 320 q 391 303 392 295 l 394 236 l 394 188 q 394 170 402 147 q 410 119 416 98 q 419 86 422 72 z"},"z":{"x_min":0,"x_max":350,"ha":350,"o":"m 374 229 q 349 200 324 187 q 299 174 264 168 q 170 159 128 73 l 223 70 q 327 70 327 -1 l 251 -4 q 165 -14 139 -14 q 94 -14 70 -7 q 25 5 25 42 q 25 61 102 177 l 188 302 l 13 328 l 13 384 q 40 384 92 382 q 144 379 162 379 q 207 379 232 375 q 256 371 265 365 q 282 354 282 331 q 282 317 274 298 q 267 278 249 252 l 231 223 l 262 222 l 304 223 q 316 223 326 224 q 337 224 374 229 z"},"B":{"x_min":0,"x_max":565,"ha":565,"o":"m 575 250 q 575 170 506 48 q 466 -20 423 -56 q 380 -93 330 -99 q 330 -62 349 -22 q 368 17 410 67 q 448 112 468 148 q 487 184 487 211 q 487 242 472 256 q 456 271 419 271 q 385 271 324 258 q 264 246 234 246 l 204 250 q 207 274 223 298 q 239 322 270 353 l 369 450 q 420 509 420 561 q 420 588 392 599 q 367 614 324 614 q 281 614 239 607 q 218 604 204 600 q 190 597 163 590 l 160 587 l 156 576 l 156 360 l 160 255 l 168 74 q 168 43 160 24 q 149 -9 112 -12 q 78 -12 64 11 q 56 28 56 62 q 56 71 61 150 q 63 182 63 215 q 63 285 68 346 q 74 406 80 467 q 80 502 76 533 l 66 644 q 66 664 74 673 q 80 689 102 689 q 111 689 122 688 q 134 687 146 684 q 198 671 214 671 l 242 671 l 275 672 q 377 672 423 659 q 507 636 507 577 q 507 556 492 524 q 478 492 448 451 l 369 352 l 488 341 q 575 320 575 250 z"},"K":{"x_min":0,"x_max":521,"ha":521,"o":"m 525 158 q 525 147 506 125 l 475 93 q 453 109 432 125 q 402 147 383 159 q 336 190 286 190 q 217 190 190 153 q 168 123 168 64 q 168 32 161 22 q 154 11 142 6 q 131 0 114 0 q 86 0 76 33 q 69 61 69 85 q 69 96 69 106 q 69 117 72 130 l 80 203 q 80 255 73 315 q 56 474 56 510 q 56 569 71 636 q 128 618 143 536 q 146 522 150 488 q 153 454 153 405 q 153 357 158 327 q 164 297 174 271 q 257 299 292 420 q 318 506 318 622 q 318 636 324 645 q 329 654 347 657 q 381 657 397 620 q 401 605 404 592 q 406 580 406 566 q 406 528 396 488 q 385 447 364 406 q 336 344 278 276 q 351 262 410 241 q 525 203 525 158 z"},"R":{"x_min":0,"x_max":486,"ha":486,"o":"m 496 655 q 496 610 482 562 q 467 515 435 458 q 397 388 324 296 q 352 289 378 275 q 403 261 430 239 q 489 188 489 133 q 489 103 470 80 q 462 70 448 60 q 434 49 411 39 l 388 170 q 369 220 288 220 q 236 220 218 115 q 200 10 152 -9 q 134 33 128 67 q 127 75 126 102 q 124 130 124 147 l 124 180 q 124 197 126 232 q 128 267 128 285 l 139 460 q 139 520 128 565 l 92 558 l 72 561 q 62 575 61 578 q 56 586 56 595 q 56 653 199 700 q 313 739 391 739 q 496 739 496 655 z m 409 626 q 409 645 396 653 q 384 661 338 661 q 299 661 272 650 q 245 640 228 616 q 198 577 198 506 q 198 459 207 394 l 223 292 q 265 332 300 382 q 337 440 363 503 l 392 566 q 409 606 409 626 z"},"T":{"x_min":0,"x_max":407,"ha":407,"o":"m 419 675 q 408 636 363 612 l 296 588 q 304 568 310 542 q 317 517 322 479 q 328 441 328 364 l 328 352 l 328 339 l 327 303 l 327 269 l 327 259 l 327 152 q 327 141 330 128 q 332 114 335 101 l 340 68 q 340 42 328 28 q 315 15 310 11 q 300 3 281 -9 q 268 5 261 16 q 254 28 249 42 q 248 48 246 63 q 243 78 243 93 q 243 107 243 121 q 246 137 247 145 l 250 194 l 250 461 q 250 483 248 494 q 247 504 241 526 l 228 575 q 220 608 153 608 q 113 608 90 624 q 66 639 56 670 q 109 677 154 677 l 217 676 l 265 675 l 288 675 q 296 675 304 675 q 314 677 321 678 q 328 678 342 682 q 356 685 371 690 q 394 690 419 675 z"},"P":{"x_min":0,"x_max":407,"ha":407,"o":"m 519 732 q 519 603 429 479 q 395 431 264 301 q 220 257 199 226 q 178 196 178 174 q 178 150 180 138 l 188 76 q 188 45 177 26 q 166 8 118 -12 q 102 45 96 95 q 90 145 90 194 q 90 234 93 284 q 96 333 106 429 q 109 458 112 504 q 115 549 115 568 q 115 582 114 602 q 112 621 108 650 q 92 765 92 790 l 104 818 q 110 828 112 833 q 115 838 119 848 q 145 842 172 826 q 185 819 194 816 q 202 812 209 810 l 234 808 l 264 808 l 308 808 q 398 808 445 798 q 519 784 519 732 z m 424 674 q 424 712 390 730 q 356 742 306 742 l 281 742 l 256 743 q 215 743 191 733 q 167 723 167 693 q 167 671 179 624 q 187 585 189 574 q 191 564 191 551 l 188 413 l 191 361 l 197 321 q 295 404 328 447 q 348 473 370 517 q 387 553 412 616 l 421 649 z"},"|":{"x_min":0,"x_max":248,"ha":248,"o":"m 212 52 q 212 29 199 9 q 191 2 182 -2 q 174 -5 160 -5 q 132 -5 120 34 q 117 48 114 71 q 111 94 111 116 l 112 166 q 112 191 115 202 q 115 219 113 263 q 111 307 111 317 l 103 513 q 103 534 100 545 l 92 598 q 92 628 104 644 q 112 658 152 680 q 164 634 172 590 q 180 547 186 497 q 198 402 198 328 q 198 269 199 219 q 200 169 201 124 q 201 106 203 97 q 209 55 212 52 z"},"t":{"x_min":0,"x_max":474,"ha":474,"o":"m 489 434 q 456 401 340 354 q 292 334 287 327 q 282 320 278 303 l 275 265 q 275 255 276 238 q 277 220 280 195 l 285 120 q 285 67 271 38 q 261 15 245 2 q 229 -11 198 -19 q 189 12 188 19 l 187 53 q 187 67 188 84 q 188 102 196 151 q 199 172 202 198 q 206 225 206 247 q 206 271 196 280 q 186 287 162 287 l 126 284 l 84 281 q 57 281 40 291 q 22 301 6 328 l 82 342 l 191 358 q 247 368 321 400 l 452 463 z"},"M":{"x_min":0,"x_max":736,"ha":736,"o":"m 759 106 q 759 91 744 76 q 739 71 729 67 q 719 63 712 61 q 674 69 658 113 q 646 159 646 215 q 646 228 646 240 q 646 253 648 271 l 651 333 l 651 347 q 651 395 646 418 q 642 441 633 464 l 585 356 q 564 310 542 274 q 519 239 495 213 q 463 177 430 160 q 397 144 353 144 q 346 207 315 270 l 251 384 q 224 434 208 473 l 202 404 q 205 358 208 312 q 210 267 210 235 l 215 132 q 215 75 208 47 q 195 -10 143 -30 q 124 10 115 50 q 109 88 109 131 q 109 170 112 209 q 118 259 121 289 l 127 382 q 127 414 118 483 l 110 586 q 110 605 111 618 q 112 630 117 648 q 122 665 163 681 q 169 669 182 658 q 194 646 216 630 q 237 613 247 597 l 325 421 q 365 328 420 264 q 448 296 496 392 l 583 565 q 627 658 655 658 q 690 658 707 621 q 710 614 714 602 q 717 591 720 578 q 722 565 724 546 q 727 527 728 514 l 731 424 l 730 350 l 729 275 q 729 256 730 247 q 731 238 737 213 z"},"g":{"x_min":0,"x_max":486,"ha":486,"o":"m 494 203 q 494 194 482 171 l 472 154 q 470 141 469 134 q 468 128 468 116 q 468 107 468 98 q 468 90 471 73 l 474 18 q 445 18 424 21 q 402 24 388 26 q 373 29 347 32 q 320 32 245 12 q 170 -9 137 -9 q 84 -9 54 9 q 16 30 16 76 q 16 165 156 273 l 279 363 l 312 364 q 316 355 318 346 q 321 338 322 331 q 322 291 203 215 q 92 144 92 87 q 92 64 110 54 q 127 45 157 45 q 179 45 210 52 q 242 58 290 73 q 384 101 384 125 l 381 139 l 377 155 l 334 141 q 308 131 286 131 q 275 131 266 134 q 258 137 250 143 q 241 149 236 159 q 230 169 224 187 l 338 217 q 416 237 443 237 q 451 237 460 234 q 468 232 475 227 q 494 218 494 203 z"},"j":{"x_min":0,"x_max":226,"ha":226,"o":"m 231 173 q 231 134 212 99 q 194 71 140 29 q 87 -13 56 -13 q 43 -13 25 0 q 15 10 13 28 q 13 40 20 52 q 26 63 42 76 q 109 129 114 151 q 120 173 123 200 l 126 256 l 126 314 l 127 368 q 127 381 130 392 q 132 403 140 423 q 162 416 176 403 q 192 391 198 381 q 204 371 218 277 z"},"i":{"x_min":0,"x_max":136,"ha":136,"o":"m 138 12 q 90 4 80 2 l 36 -1 q 36 13 34 45 q 32 77 32 82 l 30 136 q 30 197 36 232 q 43 267 56 291 q 68 315 92 336 q 116 286 121 251 q 126 216 126 170 l 126 112 l 126 66 q 126 53 128 44 q 130 36 138 12 z"},"y":{"x_min":0,"x_max":372,"ha":372,"o":"m 377 273 q 377 235 337 161 l 259 36 q 234 -2 221 -26 q 208 -50 202 -65 l 179 -151 q 173 -176 170 -184 q 168 -192 151 -242 q 144 -261 139 -273 q 130 -293 114 -318 q 79 -370 24 -375 l 24 -343 q 24 -289 57 -224 l 122 -93 q 136 -65 145 -38 q 154 -12 154 3 q 154 26 95 120 q 75 152 57 182 q 39 212 9 257 l 73 283 q 109 207 133 176 q 163 136 211 105 l 338 336 q 351 323 356 317 q 361 311 368 301 q 375 291 377 273 z"},"@":{"x_min":0,"x_max":858,"ha":858,"o":"m 848 587 q 848 489 758 442 q 689 408 572 408 q 554 408 482 393 q 446 387 422 387 q 394 387 364 402 q 333 418 333 445 q 333 498 434 568 q 534 638 600 638 q 625 638 637 618 q 646 601 646 574 l 646 560 q 646 554 646 548 q 644 539 644 535 l 639 502 l 642 489 q 672 493 696 500 q 720 508 738 521 q 780 549 780 600 q 780 647 740 678 q 699 710 635 710 q 512 710 347 632 q 258 588 214 546 q 170 503 170 456 q 170 396 248 354 q 281 334 318 324 q 356 315 398 315 q 471 315 593 348 q 674 368 712 375 q 767 385 810 385 q 780 299 620 269 q 524 250 385 250 q 281 250 184 300 q 69 362 69 445 q 69 561 284 672 q 478 770 623 770 q 671 770 710 758 q 748 745 780 718 q 848 668 848 587 z m 536 539 q 508 528 479 507 q 467 499 458 490 q 449 481 439 467 l 445 466 l 463 465 q 505 465 523 491 q 533 507 536 539 z"},".":{"x_min":0,"x_max":173,"ha":173,"o":"m 186 138 q 186 124 157 109 q 142 104 134 102 q 125 99 113 99 q 94 99 88 109 q 81 119 80 134 q 80 150 86 164 q 93 177 110 197 l 158 174 q 186 155 186 138 z"},"p":{"x_min":0,"x_max":407,"ha":407,"o":"m 408 323 q 408 277 319 214 q 284 189 251 171 q 218 153 184 140 l 143 129 q 130 123 130 105 l 132 87 l 135 66 q 135 7 71 7 l 36 12 q 36 26 34 36 q 32 47 31 54 q 20 106 20 116 q 20 129 34 194 q 42 224 42 240 q 42 267 44 278 q 45 290 50 318 q 60 364 87 377 q 91 379 113 383 l 136 385 l 269 386 q 316 386 351 377 q 408 363 408 323 z m 322 304 l 278 317 q 251 321 238 322 q 225 322 218 322 q 119 322 119 241 q 119 224 124 217 q 130 210 149 210 q 186 210 247 248 q 271 263 291 278 q 311 293 322 304 z"},"X":{"x_min":0,"x_max":419,"ha":419,"o":"m 429 611 q 429 592 325 418 q 281 346 281 301 q 281 261 325 196 q 374 126 374 98 q 374 74 357 61 q 353 57 344 52 q 335 46 312 39 l 268 133 q 261 147 254 161 q 244 181 227 204 q 216 182 195 100 q 184 58 163 30 q 142 3 109 -11 q 92 27 92 58 q 92 107 130 190 q 149 232 158 260 q 168 287 168 304 q 168 327 99 440 q 66 495 66 537 l 67 557 l 72 584 q 121 580 156 525 l 235 401 q 248 431 262 462 q 277 494 291 522 q 320 568 352 590 q 384 611 429 611 z"},"*":{"x_min":0,"x_max":496,"ha":496,"o":"m 513 641 l 430 621 l 378 611 l 423 549 q 439 524 448 485 q 423 485 404 492 q 386 498 368 510 q 360 514 307 564 l 307 551 q 307 505 292 480 q 281 463 259 454 q 237 444 201 444 l 200 478 l 200 502 q 200 532 162 539 q 113 549 102 583 l 122 589 l 130 562 l 110 556 l 98 607 l 91 661 l 109 668 q 112 664 114 660 q 117 655 123 639 l 134 611 l 117 602 q 98 628 84 648 q 70 669 58 687 q 76 687 83 688 q 90 689 119 695 l 161 704 l 155 731 l 153 782 q 196 773 214 763 l 233 753 q 237 762 243 776 q 249 789 250 790 q 267 813 305 836 l 328 745 l 378 778 q 395 789 420 794 q 444 800 480 800 l 437 745 l 392 695 l 443 688 q 467 682 482 672 q 498 662 513 641 z"},"Y":{"x_min":0,"x_max":430,"ha":430,"o":"m 445 681 l 358 549 q 340 510 330 490 q 316 463 303 444 q 256 366 208 366 q 194 366 183 372 l 167 385 q 160 393 112 515 q 63 637 63 648 q 63 656 64 664 q 64 671 67 678 q 69 687 90 711 q 132 672 159 613 q 206 504 227 465 l 264 513 q 305 599 334 648 q 362 698 386 698 q 401 698 412 693 z m 297 89 q 297 49 282 28 q 273 15 254 8 q 236 0 205 0 l 206 267 l 200 292 q 192 311 192 323 q 192 355 224 355 q 243 355 254 348 q 265 341 274 323 q 282 305 282 265 l 281 240 l 281 219 q 281 211 282 199 q 283 187 286 172 q 297 103 297 89 z"},"c":{"x_min":0,"x_max":430,"ha":430,"o":"m 441 63 q 441 50 416 37 q 391 24 345 17 q 251 4 124 4 q 75 4 49 16 q 13 33 13 73 q 13 87 14 94 q 16 100 22 110 q 29 121 33 126 q 41 137 48 144 q 84 179 198 252 q 259 292 299 314 q 339 335 367 344 l 380 316 l 386 295 q 386 280 375 266 q 371 262 366 258 q 360 253 347 246 l 208 170 q 143 129 106 79 q 152 66 193 66 q 229 66 285 80 q 312 87 340 95 q 367 103 396 113 q 416 113 428 94 q 441 78 441 63 z"},"!":{"x_min":0,"x_max":226,"ha":226,"o":"m 197 166 q 197 136 180 112 q 170 102 152 94 q 133 86 118 82 q 107 122 103 156 q 99 190 99 228 l 103 326 l 106 421 q 106 445 104 462 q 102 479 93 513 q 88 539 84 562 q 81 585 81 598 q 81 624 92 642 q 98 652 109 658 q 120 665 142 672 q 152 646 160 612 q 169 579 172 554 q 176 529 179 494 q 182 458 182 431 l 180 357 l 179 285 q 179 269 191 213 q 197 184 197 166 z m 204 -34 q 204 -53 190 -60 q 177 -68 158 -68 q 136 -68 119 -52 q 102 -38 102 -18 q 102 -10 104 -2 q 107 7 112 14 q 122 31 142 31 q 162 31 185 10 q 193 -1 196 -6 q 204 -20 204 -34 z"},"/":{"x_min":0,"x_max":422,"ha":422,"o":"m 419 686 q 419 661 408 625 q 396 589 370 534 l 274 333 q 247 272 230 230 q 214 189 208 166 l 184 61 q 181 34 149 12 q 135 4 120 -1 q 106 -6 80 -10 q 78 -3 76 8 q 73 20 70 33 q 70 63 138 231 q 176 320 215 406 q 254 492 274 536 q 307 608 336 670 q 366 731 382 759 q 394 747 401 738 q 405 732 412 721 q 419 707 419 686 z"},"[":{"x_min":0,"x_max":362,"ha":362,"o":"m 375 -58 q 354 -61 342 -62 q 331 -64 318 -67 l 262 -71 q 196 -71 166 -40 q 136 -9 136 46 q 136 65 136 82 q 136 100 139 118 l 147 240 q 147 291 136 389 q 130 447 126 482 q 121 517 118 529 q 114 541 106 556 q 98 572 83 596 q 76 609 70 624 q 69 626 68 629 q 68 670 147 690 q 176 697 204 700 q 232 704 257 704 l 312 698 q 299 684 281 671 q 263 658 229 638 q 190 612 190 583 q 190 558 193 530 q 196 502 203 465 q 218 383 226 336 q 233 288 233 269 l 233 110 q 233 14 306 1 q 334 -3 350 -16 q 365 -28 375 -58 z"},"6":{"x_min":0,"x_max":509,"ha":509,"o":"m 509 184 q 509 125 433 73 q 362 28 290 28 q 175 28 117 104 q 95 136 83 178 q 71 219 71 273 q 71 381 129 497 q 158 557 195 604 q 232 652 284 695 q 310 683 332 681 q 332 668 288 589 l 206 432 l 152 325 l 319 311 q 412 311 460 276 q 509 242 509 184 z m 390 168 q 390 202 344 228 q 299 254 250 254 q 217 254 191 240 q 170 229 170 205 q 170 166 205 140 q 227 128 250 122 q 272 115 298 115 q 316 115 330 118 q 344 122 359 130 q 390 146 390 168 z"},"r":{"x_min":0,"x_max":509,"ha":509,"o":"m 519 0 l 492 0 l 457 3 l 406 64 q 381 92 340 92 q 313 92 286 89 q 251 83 230 80 q 154 72 147 65 q 143 55 138 46 q 134 36 130 28 q 115 -1 85 -1 q 54 -1 33 65 q 16 127 16 214 q 16 223 20 232 q 24 240 30 247 q 41 253 162 267 l 300 281 q 336 281 374 273 q 430 258 430 228 q 430 219 420 206 q 410 194 388 178 l 357 154 q 426 141 466 114 q 492 96 506 68 q 519 41 519 0 z m 300 214 l 280 216 l 239 217 q 183 217 148 209 q 95 200 95 172 q 95 160 107 150 q 119 139 142 139 q 177 139 236 169 q 282 191 300 214 z"},"2":{"x_min":0,"x_max":585,"ha":585,"o":"m 600 91 q 586 64 573 51 q 560 38 539 31 q 509 19 458 19 l 416 18 l 377 18 q 280 18 233 28 q 150 45 150 95 q 167 135 184 176 q 201 217 218 264 q 231 300 246 344 q 260 387 270 426 q 279 466 279 487 q 279 512 274 533 q 268 554 249 554 q 221 554 157 499 l 96 445 q 88 463 84 476 q 81 488 81 499 q 81 550 135 589 q 192 626 250 626 q 306 626 332 594 q 359 565 359 514 q 359 444 308 307 q 262 177 262 124 q 262 110 281 100 q 309 90 361 90 l 439 94 l 518 98 q 552 98 600 91 z"},"{":{"x_min":0,"x_max":350,"ha":350,"o":"m 364 659 l 341 633 q 298 623 273 599 q 254 578 254 545 q 254 532 257 516 q 260 499 270 469 q 273 457 276 444 q 279 430 279 417 q 279 380 246 333 q 212 286 207 266 q 210 259 218 251 l 255 215 q 272 194 283 172 q 294 151 304 123 q 309 97 314 72 q 319 46 326 19 l 345 -12 q 351 -23 353 -38 q 353 -91 295 -106 q 246 -91 231 -1 q 222 62 216 95 q 209 128 202 139 q 185 173 150 190 q 115 208 58 208 q 58 252 145 342 q 182 378 182 413 l 182 430 q 182 436 182 442 q 180 452 180 456 l 171 533 q 171 617 202 648 q 217 661 319 710 l 345 688 q 351 682 356 676 q 360 669 364 659 z"},"9":{"x_min":0,"x_max":448,"ha":448,"o":"m 454 386 q 454 334 446 280 q 438 226 419 160 q 369 -15 286 -15 q 275 -15 260 -8 q 244 0 237 6 q 230 12 223 19 q 258 51 284 86 q 311 120 330 160 q 368 239 368 314 l 366 341 l 366 356 l 288 339 q 257 333 246 332 q 217 327 213 323 q 156 323 112 353 q 69 383 69 431 q 69 485 148 563 q 227 641 288 641 q 362 641 414 538 q 454 459 454 386 z m 364 462 q 364 498 335 527 q 307 560 270 560 q 227 560 194 524 q 163 487 163 448 q 163 418 184 403 q 209 390 250 390 q 274 390 292 394 q 311 399 327 409 q 361 429 364 462 z"}," ":{"x_min":0,"x_max":500,"ha":500,"o":""},"I":{"x_min":0,"x_max":282,"ha":282,"o":"m 238 50 q 238 34 221 12 q 201 -5 180 -5 q 149 -5 130 24 q 114 53 114 75 l 115 380 q 115 388 114 398 q 114 409 111 427 l 100 508 q 100 545 111 564 q 128 590 175 601 q 186 571 192 540 q 199 509 204 461 q 210 413 210 337 l 210 318 l 210 304 l 210 290 l 210 278 l 209 241 l 209 207 l 209 197 q 209 175 228 108 q 238 68 238 50 z"},"H":{"x_min":0,"x_max":532,"ha":532,"o":"m 513 93 q 513 76 512 66 q 510 55 505 36 q 499 19 488 9 q 477 -1 460 -11 q 446 16 438 46 q 429 75 429 110 l 423 193 q 381 189 348 186 q 316 183 296 180 q 217 166 207 132 q 203 120 200 108 q 194 92 188 83 q 181 68 172 58 q 162 48 144 38 q 115 94 106 146 q 97 198 97 257 l 96 584 q 96 623 100 641 q 104 659 112 672 q 120 684 138 700 q 155 676 164 658 q 172 641 179 614 q 183 595 186 570 q 189 546 189 523 q 186 490 184 466 q 182 442 182 414 l 176 317 q 176 291 178 278 q 179 266 183 259 q 194 239 241 239 q 340 239 370 248 q 422 266 422 327 q 422 347 418 388 q 414 429 405 491 q 401 521 399 544 q 397 568 397 591 l 397 613 q 397 626 398 638 q 398 649 403 663 q 409 688 438 688 q 462 688 476 594 l 488 490 q 498 421 502 385 q 507 349 507 304 z"},"4":{"x_min":0,"x_max":585,"ha":585,"o":"m 596 105 q 586 88 563 74 q 556 70 543 68 q 530 66 517 66 q 489 63 441 23 q 426 9 414 2 q 401 -5 381 -12 q 361 22 361 56 l 362 75 l 344 76 l 317 76 l 282 76 q 186 76 149 84 q 75 96 75 138 q 75 143 80 156 q 85 170 99 200 l 159 334 q 201 457 201 586 q 201 622 210 636 q 218 650 255 662 q 263 642 268 626 q 274 610 276 597 q 283 570 283 535 q 283 456 242 343 q 197 210 185 166 l 246 152 q 263 149 280 147 q 297 145 312 145 q 375 145 375 190 l 375 206 q 375 267 368 337 q 368 409 363 466 q 358 523 353 583 q 356 594 358 598 q 367 613 368 614 q 383 622 417 629 q 430 601 438 567 q 447 533 451 504 q 455 476 457 438 q 459 401 459 364 l 459 350 l 459 338 l 458 298 l 458 260 l 458 249 q 458 219 460 202 q 463 185 470 172 q 481 150 524 150 l 550 152 q 569 147 580 133 q 582 129 586 123 q 591 117 596 105 z"},"~":{"x_min":0,"x_max":746,"ha":746,"o":"m 763 246 q 735 226 698 208 q 669 194 614 173 q 518 140 464 140 q 410 140 358 175 q 255 248 231 248 q 210 248 181 240 q 144 227 122 221 q 99 215 89 215 l 55 219 q 68 273 161 290 q 215 298 232 306 q 250 315 269 315 q 302 315 362 258 q 415 207 469 207 q 506 207 586 237 q 630 254 656 262 q 681 269 697 269 q 725 269 763 246 z"},"D":{"x_min":0,"x_max":576,"ha":576,"o":"m 587 548 q 587 517 585 506 q 583 496 574 474 q 563 441 537 396 l 360 120 l 334 68 q 324 48 313 36 q 302 23 293 18 q 279 9 255 9 l 222 11 l 191 12 q 176 12 162 9 q 144 76 135 125 q 123 189 123 240 q 123 277 119 365 q 115 453 115 505 l 115 605 q 115 637 121 659 q 127 681 173 681 l 200 679 l 196 660 l 175 662 l 165 663 l 184 672 q 194 665 216 662 l 254 659 l 311 661 l 353 664 q 455 664 501 650 q 587 622 587 548 z m 499 539 q 499 570 452 587 q 434 591 410 593 q 387 595 350 595 l 317 595 q 253 595 225 568 q 198 539 198 486 q 198 423 200 374 q 201 325 203 285 q 212 179 241 101 q 302 141 395 300 q 447 386 473 445 q 499 504 499 539 z"},"^":{"x_min":0,"x_max":384,"ha":384,"o":"m 381 519 q 381 499 372 486 q 363 474 337 463 q 318 489 286 554 q 243 647 198 674 l 180 593 q 158 474 70 454 l 66 501 q 66 534 101 639 q 136 744 153 758 q 170 771 192 771 q 211 771 222 764 l 250 749 q 263 739 282 712 q 302 684 328 638 q 381 546 381 519 z"},"0":{"x_min":0,"x_max":385,"ha":385,"o":"m 395 356 q 395 235 384 198 q 360 114 278 66 q 256 51 234 43 q 217 35 189 35 q 119 35 89 120 q 81 146 76 177 q 71 208 71 245 q 71 343 102 443 q 144 575 225 620 q 325 511 337 498 q 395 420 395 356 z m 312 314 q 312 388 296 429 q 274 483 215 500 q 198 455 184 416 q 175 390 162 349 q 148 290 148 251 q 148 223 152 206 q 155 190 165 175 q 189 139 238 139 q 287 139 305 206 q 312 241 312 314 z"},"F":{"x_min":0,"x_max":362,"ha":362,"o":"m 480 469 l 284 395 q 179 342 179 271 q 179 247 194 163 q 197 139 199 122 q 201 106 201 93 q 201 52 190 30 q 178 8 145 -11 q 118 16 109 37 q 100 58 100 79 q 100 102 102 114 q 102 134 104 146 l 104 268 q 104 302 104 340 q 103 378 102 420 q 102 472 92 538 l 66 662 l 67 679 l 71 709 l 135 671 q 154 664 157 664 q 167 664 236 695 q 312 729 353 729 q 400 729 422 676 q 351 662 308 650 q 264 639 241 627 q 167 589 167 510 l 166 491 l 166 476 q 166 451 172 436 q 177 422 191 422 q 216 422 288 460 q 373 504 416 510 q 428 507 436 504 q 444 501 448 497 q 456 492 462 486 q 469 481 480 469 z"},"`":{"x_min":0,"x_max":204,"ha":204,"o":"m 204 727 l 200 701 q 142 708 67 765 q -8 822 -8 861 q -8 882 16 882 q 35 882 90 850 q 133 826 160 805 q 179 791 191 769 q 204 749 204 727 z"},"k":{"x_min":0,"x_max":542,"ha":542,"o":"m 552 36 q 552 5 544 -4 q 533 -20 498 -20 q 469 -20 405 54 q 377 88 342 104 q 306 121 259 121 q 240 121 141 77 q 89 54 45 54 l 44 146 l 39 285 l 40 340 q 40 366 47 402 l 123 403 q 123 365 124 336 q 125 306 126 278 q 130 234 141 191 q 168 199 190 214 q 211 230 232 258 q 342 390 394 405 l 395 382 q 395 351 368 306 l 297 202 l 453 159 q 552 116 552 36 z"},"u":{"x_min":0,"x_max":372,"ha":372,"o":"m 376 63 l 375 36 q 372 29 371 24 q 366 9 355 -9 q 333 -1 320 4 q 306 10 282 21 q 262 28 255 30 q 235 36 216 36 q 202 36 194 35 q 185 34 159 28 l 122 24 q 72 24 47 66 q 34 94 34 144 l 34 170 l 33 351 q 33 364 47 381 q 60 381 65 383 l 100 387 q 100 240 117 170 q 134 99 163 99 q 181 99 218 109 l 284 129 q 277 172 274 202 q 272 231 272 276 l 272 349 l 272 404 l 350 404 l 350 226 q 350 201 353 183 q 353 180 363 145 q 376 85 376 63 z"},"]":{"x_min":0,"x_max":305,"ha":305,"o":"m 320 676 q 303 648 293 619 q 283 590 278 560 q 272 513 270 488 q 269 463 269 421 l 269 384 l 269 278 q 269 258 270 232 q 272 207 276 168 q 276 153 278 140 q 280 126 286 104 q 309 4 309 -10 q 309 -46 282 -67 q 270 -77 254 -83 q 237 -89 216 -89 q 184 -89 157 -75 q 144 -68 132 -56 q 120 -44 107 -21 l 158 -22 q 182 -22 195 -11 q 205 -4 205 19 q 205 33 204 50 q 202 66 198 99 q 181 212 181 238 q 181 275 183 303 q 185 331 194 389 q 198 423 202 470 q 207 518 207 538 l 207 560 q 207 570 206 578 q 206 586 205 592 q 205 602 202 614 q 199 625 197 632 l 161 627 l 127 625 q 96 625 77 635 q 57 648 54 681 l 66 704 l 94 708 q 131 708 160 708 q 188 708 227 704 q 266 700 320 676 z"},"U":{"x_min":0,"x_max":442,"ha":442,"o":"m 452 88 q 452 55 445 41 q 434 9 400 9 q 388 9 303 31 q 287 35 271 38 q 255 41 243 41 q 217 41 194 37 l 108 25 q 85 25 74 40 q 64 56 64 73 l 68 246 l 76 533 q 76 557 85 577 q 88 585 98 594 q 109 604 130 616 q 140 592 145 575 q 150 558 155 528 q 160 497 160 455 q 160 437 158 400 q 156 363 156 342 l 146 156 q 146 126 175 119 q 190 115 209 114 q 228 114 247 114 q 316 114 343 136 q 370 158 370 219 q 370 274 368 311 q 363 362 361 390 q 361 427 358 470 q 354 513 351 560 q 351 589 362 606 q 368 615 380 620 q 391 626 415 631 q 423 608 428 591 q 433 574 438 547 q 444 520 444 479 q 444 468 442 436 q 440 404 440 392 q 429 287 429 249 q 429 218 440 168 q 445 140 447 128 q 449 115 452 88 z"},"o":{"x_min":0,"x_max":293,"ha":293,"o":"m 305 183 q 305 152 298 125 q 291 98 274 72 q 258 46 230 28 q 202 9 161 0 l 157 26 q 152 57 176 94 q 200 132 213 159 q 226 186 228 195 q 228 224 202 256 q 194 267 182 276 q 171 285 152 296 q 146 283 140 267 q 135 251 131 230 l 113 152 q 98 165 94 171 q 91 177 91 182 l 111 183 q 113 171 121 159 q 126 152 132 146 q 158 126 158 109 q 158 87 132 70 q 123 65 108 60 q 94 55 82 55 q 55 55 36 71 q 19 90 19 112 q 19 133 35 174 q 40 188 42 196 q 44 204 45 208 l 57 303 q 67 331 89 345 q 111 359 149 359 q 221 359 267 297 q 305 245 305 183 z"},"N":{"x_min":0,"x_max":532,"ha":532,"o":"m 543 131 q 543 99 529 77 q 510 46 474 46 q 412 46 355 140 q 335 173 318 216 q 301 259 280 325 l 240 472 q 220 534 201 596 q 194 618 155 731 q 229 731 278 598 l 356 341 q 377 271 399 224 q 421 177 446 152 l 452 193 q 453 208 454 222 q 456 236 456 259 q 451 325 448 388 q 444 452 444 505 q 444 538 441 588 q 438 638 438 654 q 438 684 439 703 q 440 722 444 739 q 448 756 448 759 q 447 759 446 757 q 444 755 433 735 l 488 789 l 508 789 q 513 751 516 730 q 518 710 518 680 l 520 567 l 520 546 l 520 526 l 520 510 l 520 495 l 520 483 l 519 444 l 519 405 l 519 393 q 519 348 526 296 q 543 160 543 131 z m 224 111 q 224 75 214 48 q 205 21 179 -9 q 156 19 140 46 q 124 72 112 102 q 93 162 93 217 q 93 279 91 304 q 89 330 81 393 q 54 632 54 691 q 54 722 64 741 q 70 751 82 758 q 93 765 118 772 q 156 680 168 554 q 171 517 174 457 q 177 397 177 344 q 177 313 191 260 q 224 140 224 111 z"},"+":{"x_min":0,"x_max":409,"ha":409,"o":"m 420 410 l 318 393 q 278 377 278 336 q 278 326 280 315 q 281 304 282 298 l 294 226 q 294 214 290 203 q 286 192 279 182 q 263 163 232 163 q 205 163 190 182 q 175 202 175 227 q 175 242 176 248 q 176 254 180 267 l 194 328 l 194 342 l 192 345 l 164 335 l 124 326 l 96 330 q 88 332 80 335 q 73 338 60 344 q 91 389 140 403 q 190 417 190 513 q 190 533 205 548 q 214 556 229 563 q 244 570 258 574 q 261 552 264 533 q 267 514 272 499 q 286 463 307 463 q 321 463 332 466 q 343 469 352 470 q 361 471 366 472 q 397 472 408 458 q 413 447 416 437 q 418 427 420 410 z"},"G":{"x_min":0,"x_max":521,"ha":521,"o":"m 530 194 q 520 163 501 149 q 489 144 489 60 q 489 35 474 18 q 460 0 425 -11 q 418 2 412 20 q 405 38 400 53 l 389 100 l 310 55 q 245 22 204 22 q 127 22 86 113 q 56 178 56 254 q 56 311 70 364 q 83 418 112 475 q 142 532 181 580 q 220 629 270 671 l 333 646 l 219 503 q 197 471 180 438 q 162 406 153 378 q 130 309 130 220 q 130 195 136 176 q 141 157 154 138 q 185 93 232 93 q 263 93 293 106 q 323 120 354 147 q 414 204 414 257 q 414 267 410 285 l 402 305 l 376 295 l 341 289 q 320 289 302 301 q 294 306 286 314 q 278 322 268 339 q 308 358 345 370 q 362 374 382 377 q 403 380 420 380 q 465 380 505 361 l 518 344 l 502 287 q 496 260 496 238 l 501 231 q 513 220 520 210 q 527 201 530 194 z"},"q":{"x_min":0,"x_max":442,"ha":442,"o":"m 455 32 q 419 18 395 18 l 358 23 q 335 30 326 30 q 298 30 230 14 q 162 -2 130 -2 q 78 -2 44 20 q 10 46 10 87 q 10 120 33 156 q 56 193 105 233 q 200 315 278 315 q 393 315 424 239 q 432 221 436 186 q 440 152 440 94 q 440 80 443 66 q 446 51 455 32 z m 370 188 q 370 208 349 236 q 328 264 304 264 q 292 264 272 251 l 242 224 q 209 206 186 192 q 162 178 148 168 q 98 138 98 96 q 98 77 114 68 q 129 60 156 60 q 181 60 192 62 q 204 63 222 68 q 240 72 252 74 q 263 77 287 85 l 264 107 q 257 115 250 125 q 240 140 232 157 q 256 157 270 155 q 284 153 307 148 q 319 142 355 132 l 364 157 z"},"d":{"x_min":0,"x_max":474,"ha":474,"o":"m 480 178 q 480 122 320 57 q 247 30 193 16 q 139 2 102 2 q 74 2 63 24 q 61 31 59 42 q 57 54 57 65 l 57 204 q 57 215 43 243 q 33 260 29 266 q 22 279 18 288 q 23 309 38 312 q 54 316 79 316 q 138 316 192 310 q 247 304 308 289 q 480 247 480 178 z m 391 186 q 391 207 306 224 q 220 240 175 240 q 134 240 134 205 q 134 189 135 175 q 136 161 140 146 l 153 93 q 211 101 236 106 q 260 111 280 116 q 299 120 318 128 q 338 137 356 147 q 359 149 366 155 q 374 161 378 166 q 391 177 391 186 z"},"1":{"x_min":0,"x_max":211,"ha":211,"o":"m 182 72 q 182 26 164 0 q 147 -21 105 -32 q 95 3 90 30 q 85 58 81 95 q 81 118 78 168 q 76 218 76 237 l 76 324 q 76 339 75 356 q 74 373 71 394 l 63 518 q 63 558 66 582 q 70 606 96 650 q 116 632 129 610 q 142 589 149 560 q 156 531 156 476 q 156 462 155 438 q 154 415 151 383 l 146 288 q 146 251 156 210 q 182 97 182 72 z"},"5":{"x_min":0,"x_max":521,"ha":521,"o":"m 536 624 l 211 552 q 180 540 167 516 q 162 501 158 484 q 155 466 155 448 q 155 405 302 357 q 450 309 450 195 q 450 113 349 52 q 305 26 258 12 q 211 -1 160 -1 q 123 -1 94 19 q 82 29 76 43 q 69 57 69 75 q 69 87 77 96 q 85 104 102 108 q 120 112 136 113 q 153 114 180 114 l 209 113 l 233 113 q 268 113 286 116 q 305 120 323 131 q 354 150 354 194 q 354 278 210 304 q 67 329 67 416 q 67 491 99 554 q 145 640 224 640 l 270 639 q 321 639 364 650 q 406 660 421 665 q 436 670 471 685 q 488 677 491 676 q 507 669 510 666 q 513 664 522 650 q 531 635 536 624 z"}}}
